<?xml version="1.0" encoding="UTF-8"?>
<svg width="62px" height="58px" viewBox="0 0 62 58" version="1.1" xmlns="http://www.w3.org/2000/svg" xmlns:xlink="http://www.w3.org/1999/xlink">
    <!-- Generator: Sketch 49.3 (51167) - http://www.bohemiancoding.com/sketch -->
    <title>Page 1</title>
    <desc>Created with Sketch.</desc>
    <defs>
        <polygon id="path-1" points="0.0002 0.0004 61.8795 0.0004 61.8795 57.3721 0.0002 57.3721"></polygon>
    </defs>
    <g id="Page-1" stroke="none" stroke-width="1" fill="none" fill-rule="evenodd">
        <g>
            <mask id="mask-2" fill="white">
                <use xlink:href="#path-1"></use>
            </mask>
            <g id="Clip-2"></g>
            <path d="M9.202,33.2671 L53.162,33.2671 L53.162,26.6421 L9.202,26.6421 L9.202,33.2671 Z M54.107,35.1541 L8.258,35.1541 C7.736,35.1541 7.314,34.7331 7.314,34.2111 L7.314,25.6971 C7.314,25.1761 7.736,24.7531 8.258,24.7531 L54.107,24.7531 C54.629,24.7531 55.051,25.1761 55.051,25.6971 L55.051,34.2111 C55.051,34.7331 54.629,35.1541 54.107,35.1541 Z" id="Fill-1" fill="#E54F30" mask="url(#mask-2)"></path>
            <path d="M9.202,42.6741 L19.101,42.6741 L19.101,38.9611 L9.202,38.9611 L9.202,42.6741 Z M20.046,44.5621 L8.258,44.5621 C7.736,44.5621 7.314,44.1391 7.314,43.6171 L7.314,38.0171 C7.314,37.4951 7.736,37.0721 8.258,37.0721 L20.046,37.0721 C20.568,37.0721 20.99,37.4951 20.99,38.0171 L20.99,43.6171 C20.99,44.1391 20.568,44.5621 20.046,44.5621 Z" id="Fill-3" fill="#E54F30" mask="url(#mask-2)"></path>
            <path d="M26.233,42.6741 L36.132,42.6741 L36.132,38.9611 L26.233,38.9611 L26.233,42.6741 Z M37.076,44.5621 L25.289,44.5621 C24.767,44.5621 24.344,44.1391 24.344,43.6171 L24.344,38.0171 C24.344,37.4951 24.767,37.0721 25.289,37.0721 L37.076,37.0721 C37.598,37.0721 38.021,37.4951 38.021,38.0171 L38.021,43.6171 C38.021,44.1391 37.598,44.5621 37.076,44.5621 Z" id="Fill-4" fill="#E54F30" mask="url(#mask-2)"></path>
            <path d="M43.263,42.6741 L53.162,42.6741 L53.162,38.9611 L43.263,38.9611 L43.263,42.6741 Z M54.107,44.5621 L42.319,44.5621 C41.798,44.5621 41.375,44.1391 41.375,43.6171 L41.375,38.0171 C41.375,37.4951 41.798,37.0721 42.319,37.0721 L54.107,37.0721 C54.629,37.0721 55.051,37.4951 55.051,38.0171 L55.051,43.6171 C55.051,44.1391 54.629,44.5621 54.107,44.5621 Z" id="Fill-5" fill="#E54F30" mask="url(#mask-2)"></path>
            <path d="M21.8932,22.5227 L8.2582,22.5227 C7.7362,22.5227 7.3142,22.0997 7.3142,21.5787 C7.3142,21.0567 7.7362,20.6337 8.2582,20.6337 L21.8932,20.6337 C22.4142,20.6337 22.8372,21.0567 22.8372,21.5787 C22.8372,22.0997 22.4142,22.5227 21.8932,22.5227" id="Fill-6" fill="#E54F30" mask="url(#mask-2)"></path>
            <path d="M53.8298,22.5686 L50.5598,22.5686 C50.0388,22.5686 49.6158,22.1456 49.6158,21.6246 C49.6158,21.1026 50.0388,20.6796 50.5598,20.6796 L53.8298,20.6796 C54.3508,20.6796 54.7738,21.1026 54.7738,21.6246 C54.7738,22.1456 54.3508,22.5686 53.8298,22.5686" id="Fill-7" fill="#E54F30" mask="url(#mask-2)"></path>
            <path d="M46.5485,22.5686 L43.2785,22.5686 C42.7575,22.5686 42.3345,22.1456 42.3345,21.6246 C42.3345,21.1026 42.7575,20.6796 43.2785,20.6796 L46.5485,20.6796 C47.0695,20.6796 47.4925,21.1026 47.4925,21.6246 C47.4925,22.1456 47.0695,22.5686 46.5485,22.5686" id="Fill-8" fill="#E54F30" mask="url(#mask-2)"></path>
            <path d="M39.2673,22.5686 L35.9973,22.5686 C35.4763,22.5686 35.0533,22.1456 35.0533,21.6246 C35.0533,21.1026 35.4763,20.6796 35.9973,20.6796 L39.2673,20.6796 C39.7893,20.6796 40.2113,21.1026 40.2113,21.6246 C40.2113,22.1456 39.7893,22.5686 39.2673,22.5686" id="Fill-9" fill="#E54F30" mask="url(#mask-2)"></path>
            <path d="M31.9865,22.5686 L28.7165,22.5686 C28.1945,22.5686 27.7725,22.1456 27.7725,21.6246 C27.7725,21.1026 28.1945,20.6796 28.7165,20.6796 L31.9865,20.6796 C32.5075,20.6796 32.9305,21.1026 32.9305,21.6246 C32.9305,22.1456 32.5075,22.5686 31.9865,22.5686" id="Fill-10" fill="#E54F30" mask="url(#mask-2)"></path>
            <path d="M3.7902,1.9524 C2.7762,1.9524 1.9522,2.7764 1.9522,3.7904 L1.9522,53.5824 C1.9522,54.5964 2.7762,55.4204 3.7902,55.4204 L58.0892,55.4204 C59.1032,55.4204 59.9282,54.5964 59.9282,53.5824 L59.9282,3.7904 C59.9282,2.7764 59.1032,1.9524 58.0892,1.9524 L3.7902,1.9524 Z M58.0892,57.3724 L3.7902,57.3724 C1.7002,57.3724 0.0002,55.6724 0.0002,53.5824 L0.0002,3.7904 C0.0002,1.7004 1.7002,0.0004 3.7902,0.0004 L58.0892,0.0004 C60.1792,0.0004 61.8792,1.7004 61.8792,3.7904 L61.8792,53.5824 C61.8792,55.6724 60.1792,57.3724 58.0892,57.3724 Z" id="Fill-11" fill="#E54F30" mask="url(#mask-2)"></path>
            <path d="M60.9035,11.0998 L0.9755,11.0998 C0.4365,11.0998 0.0005,10.6628 0.0005,10.1238 C0.0005,9.5848 0.4365,9.1488 0.9755,9.1488 L60.9035,9.1488 C61.4425,9.1488 61.8795,9.5848 61.8795,10.1238 C61.8795,10.6628 61.4425,11.0998 60.9035,11.0998" id="Fill-12" fill="#E54F30" mask="url(#mask-2)"></path>
            <path d="M7.3141,7.1643 C6.4571,7.1643 5.7601,6.4673 5.7601,5.6103 C5.7601,4.7533 6.4571,4.0563 7.3141,4.0563 C8.1711,4.0563 8.8681,4.7533 8.8681,5.6103 C8.8681,6.4673 8.1711,7.1643 7.3141,7.1643" id="Fill-13" fill="#E54F30" mask="url(#mask-2)"></path>
            <path d="M12.2868,7.1643 C11.4298,7.1643 10.7328,6.4673 10.7328,5.6103 C10.7328,4.7533 11.4298,4.0563 12.2868,4.0563 C13.1438,4.0563 13.8408,4.7533 13.8408,5.6103 C13.8408,6.4673 13.1438,7.1643 12.2868,7.1643" id="Fill-14" fill="#E54F30" mask="url(#mask-2)"></path>
            <path d="M17.2594,7.1643 C16.4024,7.1643 15.7054,6.4673 15.7054,5.6103 C15.7054,4.7533 16.4024,4.0563 17.2594,4.0563 C18.1164,4.0563 18.8134,4.7533 18.8134,5.6103 C18.8134,6.4673 18.1164,7.1643 17.2594,7.1643" id="Fill-15" fill="#E54F30" mask="url(#mask-2)"></path>
        </g>
    </g>
</svg>