<?xml version="1.0" encoding="UTF-8"?>
<svg width="60px" height="74px" viewBox="0 0 60 74" version="1.1" xmlns="http://www.w3.org/2000/svg" xmlns:xlink="http://www.w3.org/1999/xlink">
    <!-- Generator: Sketch 49.3 (51167) - http://www.bohemiancoding.com/sketch -->
    <title>Page 1</title>
    <desc>Created with Sketch.</desc>
    <defs></defs>
    <g id="Page-1" stroke="none" stroke-width="1" fill="none" fill-rule="evenodd">
        <path d="M36.421,23.3015 L28.43,15.3145 L28.43,20.4225 L28.43,23.3015 L36.421,23.3015 Z M29.451,14.2905 L38.165,23.0025 L46.878,14.2905 L29.451,14.2905 Z M9.437,23.3015 L1.449,15.3145 L1.446,15.3725 L1.446,22.2185 C1.446,22.5175 1.568,22.7905 1.765,22.9865 L1.767,22.9835 C1.961,23.1795 2.233,23.3015 2.532,23.3015 L9.437,23.3015 Z M2.472,14.2905 L11.452,23.2735 L11.452,14.2905 L2.532,14.2905 L2.472,14.2905 Z M20.664,11.9065 L20.664,18.6135 C20.664,18.9595 20.8,19.2695 21.016,19.4885 C21.21,19.6785 21.471,19.7975 21.747,19.7975 L26.984,19.7975 L26.984,13.5665 L26.984,12.9885 L26.984,12.9755 L26.984,12.9635 L26.984,12.9575 L26.984,12.9465 L26.984,12.9415 C26.97,12.6625 26.851,12.4095 26.666,12.2245 L26.668,12.2225 C26.473,12.0265 26.2,11.9065 25.898,11.9065 L25.015,11.9065 L20.664,11.9065 Z M26.984,21.0415 L21.747,21.0415 C21.031,21.0415 20.386,20.7555 19.922,20.2915 C19.487,19.8575 19.218,19.2635 19.218,18.6135 L19.218,11.9065 L14.554,11.9065 L13.981,11.9065 C13.682,11.9065 13.409,12.0265 13.213,12.2225 C13.018,12.4175 12.895,12.6905 12.895,12.9885 L12.895,13.5665 L12.895,24.0265 L12.895,24.9095 C12.895,25.1945 13.005,25.4555 13.185,25.6485 L13.213,25.6775 C13.409,25.8725 13.682,25.9945 13.981,25.9945 L14.864,25.9945 L25.322,25.9945 L25.898,25.9945 C26.197,25.9945 26.469,25.8725 26.666,25.6775 C26.861,25.4785 26.984,25.2075 26.984,24.9095 L26.984,24.0265 L26.984,21.0415 Z M16.609,27.4395 L24.6,35.4295 L24.6,27.4395 L16.609,27.4395 Z M15.589,45.8895 L24.301,37.1745 L15.589,28.4625 L15.589,45.8895 Z M24.6,59.8365 L16.609,67.8265 L24.6,67.8265 L24.6,59.8365 Z M24.301,58.0905 L15.589,49.3765 L15.589,66.8035 L24.301,58.0905 Z M15.888,47.6315 L24.6,56.3465 L24.6,47.6315 L24.6,38.9185 L15.888,47.6315 Z M23.27,10.4595 L15.279,2.4695 L15.279,10.4595 L23.27,10.4595 Z M52.095,23.3015 L52.15,23.3015 L52.206,23.3015 L57.336,23.3015 L48.623,14.5895 L39.907,23.3015 L48.623,23.3015 L52.095,23.3015 Z M1.446,67.8275 L10.767,67.8275 L10.767,57.7335 L1.446,57.7335 L1.446,67.8275 Z M49.543,50.2885 L54.758,50.2885 L54.758,40.8855 L49.543,40.8855 L49.543,50.2885 Z M58.358,69.2705 L25.322,69.2705 L14.864,69.2705 L11.492,69.2705 L1.446,69.2705 L1.446,71.6745 L58.358,71.6745 L58.358,69.2705 Z M12.213,67.8265 L14.142,67.8265 L14.142,47.6315 L14.142,27.4395 L13.981,27.4395 C13.281,27.4395 12.648,27.1555 12.193,26.6975 C12.179,26.6835 12.163,26.6655 12.148,26.6495 C11.716,26.1975 11.452,25.5795 11.452,24.9095 L11.452,24.7475 L2.532,24.7475 C1.836,24.7475 1.202,24.4635 0.745,24.0065 L0.745,24.0035 C0.284,23.5465 0,22.9125 0,22.2185 L0,15.3725 C0,14.6995 0.27,14.0885 0.701,13.6335 C0.716,13.6165 0.727,13.5995 0.745,13.5855 C0.758,13.5725 0.773,13.5545 0.79,13.5435 C1.245,13.1125 1.858,12.8435 2.532,12.8435 L11.455,12.8435 C11.492,12.2075 11.768,11.6305 12.193,11.2045 L12.193,11.2015 C12.62,10.7795 13.196,10.4995 13.836,10.4665 L13.836,0.7255 C13.836,0.3265 14.157,0.0005 14.554,0.0005 C14.757,0.0005 14.938,0.0825 15.067,0.2125 L15.081,0.2255 L25.316,10.4595 L25.898,10.4595 C26.595,10.4595 27.225,10.7445 27.686,11.2015 L27.686,11.2045 L27.689,11.2015 C28.112,11.6275 28.39,12.2055 28.424,12.8435 L48.623,12.8435 L48.64,12.8435 L48.657,12.8435 L48.677,12.8475 L48.694,12.8475 L48.711,12.8505 L48.728,12.8505 L48.745,12.8565 L48.762,12.8595 L48.779,12.8615 L48.796,12.8635 L48.814,12.8695 L48.831,12.8725 L48.844,12.8775 L48.861,12.8845 L48.879,12.8905 L48.896,12.8985 L48.913,12.9045 L48.927,12.9095 L48.944,12.9175 L48.958,12.9275 L48.975,12.9355 L48.992,12.9445 L49.007,12.9515 L49.021,12.9635 L49.035,12.9725 L49.049,12.9865 L49.066,12.9945 L49.08,13.0065 L49.094,13.0175 L49.106,13.0305 L49.12,13.0435 L49.134,13.0575 L59.58,23.5025 L59.592,23.5145 C59.722,23.6455 59.804,23.8265 59.804,24.0265 C59.804,24.4245 59.481,24.7475 59.08,24.7475 L52.875,24.7475 L52.875,35.8555 L57.275,35.8555 C57.946,35.8555 58.564,36.1315 59.006,36.5795 C59.466,37.0405 59.753,37.6765 59.753,38.3845 L59.753,49.2055 C59.753,49.9095 59.466,50.5465 59.006,51.0075 C58.564,51.4565 57.946,51.7345 57.275,51.7345 L55.483,51.7345 L48.819,51.7345 L47.026,51.7345 C46.356,51.7345 45.742,51.4565 45.293,51.0075 C44.835,50.5465 44.548,49.9095 44.548,49.2055 L44.548,38.3845 C44.548,37.6765 44.835,37.0405 45.293,36.5795 C45.742,36.1315 46.356,35.8555 47.026,35.8555 L51.425,35.8555 L51.425,24.7475 L48.623,24.7475 L28.43,24.7475 L28.43,24.9095 C28.43,25.6065 28.146,26.2395 27.689,26.6975 C27.262,27.1205 26.685,27.3965 26.047,27.4355 L26.047,37.1745 L26.047,47.6315 L26.047,58.0905 L26.047,67.8265 L59.08,67.8265 C59.481,67.8265 59.804,68.1515 59.804,68.5485 L59.804,72.3965 C59.804,72.7935 59.481,73.1175 59.08,73.1175 L0.725,73.1175 C0.324,73.1175 0,72.7935 0,72.3965 L0,68.5485 L0,64.7005 L0,60.8575 L0,57.0115 C0,56.6115 0.324,56.2895 0.725,56.2895 L11.492,56.2895 C11.889,56.2895 12.213,56.6115 12.213,57.0115 L12.213,60.8575 L12.213,64.7005 L12.213,67.8265 Z M47.026,50.2885 L48.098,50.2885 L48.098,40.1605 C48.098,39.7635 48.421,39.4395 48.819,39.4395 L55.483,39.4395 C55.883,39.4395 56.205,39.7635 56.205,40.1605 L56.205,50.2885 L57.275,50.2885 C57.597,50.2885 57.887,50.1605 58.094,49.9525 C58.29,49.7595 58.409,49.4925 58.409,49.2055 L58.409,38.3845 C58.409,38.0945 58.29,37.8275 58.094,37.6345 C57.887,37.4275 57.597,37.2985 57.275,37.2985 L52.206,37.2985 L52.15,37.3015 L52.095,37.2985 L47.026,37.2985 C46.705,37.2985 46.415,37.4275 46.207,37.6345 C46.015,37.8275 45.892,38.0945 45.892,38.3845 L45.892,49.2055 C45.892,49.4925 46.015,49.7595 46.207,49.9525 C46.415,50.1605 46.705,50.2885 47.026,50.2885 Z" fill="#F9F9F9"></path>
    </g>
</svg>