<?xml version="1.0" encoding="UTF-8"?>
<svg width="49px" height="46px" viewBox="0 0 49 46" version="1.1" xmlns="http://www.w3.org/2000/svg" xmlns:xlink="http://www.w3.org/1999/xlink">
    <!-- Generator: Sketch 49.3 (51167) - http://www.bohemiancoding.com/sketch -->
    <title>Page 1</title>
    <desc>Created with Sketch.</desc>
    <defs>
        <polygon id="path-1" points="0.224 0.465 21.864 0.465 21.864 11.9069 0.224 11.9069"></polygon>
        <polygon id="path-3" points="0 0.713 13.2874 0.713 13.2874 14 0 14"></polygon>
        <polygon id="path-5" points="0.8007 0.713 14.088 0.713 14.088 14 0.8007 14"></polygon>
    </defs>
    <g id="Page-1" stroke="none" stroke-width="1" fill="none" fill-rule="evenodd">
        <g transform="translate(0.000000, -1.000000)">
            <g id="Group-3" transform="translate(13.000000, 0.534900)">
                <mask id="mask-2" fill="white">
                    <use xlink:href="#path-1"></use>
                </mask>
                <g id="Clip-2"></g>
                <path d="M2.578,1.9139 C2.079,1.9139 1.673,2.3199 1.673,2.8189 L1.673,9.5529 C1.673,10.0519 2.079,10.4579 2.578,10.4579 L19.51,10.4579 C20.009,10.4579 20.415,10.0519 20.415,9.5529 L20.415,2.8189 C20.415,2.3199 20.009,1.9139 19.51,1.9139 L2.578,1.9139 Z M19.51,11.9069 L2.578,11.9069 C1.28,11.9069 0.224,10.8519 0.224,9.5529 L0.224,2.8189 C0.224,1.5209 1.28,0.4649 2.578,0.4649 L19.51,0.4649 C20.808,0.4649 21.864,1.5209 21.864,2.8189 L21.864,9.5529 C21.864,10.8519 20.808,11.9069 19.51,11.9069 Z" id="Fill-1" fill="#000202" mask="url(#mask-2)"></path>
            </g>
            <path d="M2.3739,19.0338 C1.8749,19.0338 1.4689,19.4398 1.4689,19.9388 L1.4689,26.6738 C1.4689,27.1728 1.8749,27.5788 2.3739,27.5788 L45.7139,27.5788 C46.2129,27.5788 46.6189,27.1728 46.6189,26.6738 L46.6189,19.9388 C46.6189,19.4398 46.2129,19.0338 45.7139,19.0338 L2.3739,19.0338 Z M45.7139,29.0268 L2.3739,29.0268 C1.0759,29.0268 0.0199,27.9718 0.0199,26.6738 L0.0199,19.9388 C0.0199,18.6408 1.0759,17.5858 2.3739,17.5858 L45.7139,17.5858 C47.0119,17.5858 48.0679,18.6408 48.0679,19.9388 L48.0679,26.6738 C48.0679,27.9718 47.0119,29.0268 45.7139,29.0268 Z" id="Fill-4" fill="#000202"></path>
            <path d="M24.0438,19.0338 C23.6438,19.0338 23.3198,18.7098 23.3198,18.3088 L23.3198,11.7178 C23.3198,11.3168 23.6438,10.9928 24.0438,10.9928 C24.4438,10.9928 24.7688,11.3168 24.7688,11.7178 L24.7688,18.3088 C24.7688,18.7098 24.4438,19.0338 24.0438,19.0338" id="Fill-6" fill="#000202"></path>
            <path d="M6.6434,34.3228 C6.2434,34.3228 5.9194,33.9988 5.9194,33.5978 L5.9194,28.3528 C5.9194,27.9528 6.2434,27.6288 6.6434,27.6288 C7.0434,27.6288 7.3684,27.9528 7.3684,28.3528 L7.3684,33.5978 C7.3684,33.9988 7.0434,34.3228 6.6434,34.3228" id="Fill-8" fill="#000202"></path>
            <path d="M24.0438,34.3228 C23.6438,34.3228 23.3198,33.9988 23.3198,33.5978 L23.3198,28.3528 C23.3198,27.9528 23.6438,27.6288 24.0438,27.6288 C24.4438,27.6288 24.7688,27.9528 24.7688,28.3528 L24.7688,33.5978 C24.7688,33.9988 24.4438,34.3228 24.0438,34.3228" id="Fill-10" fill="#000202"></path>
            <path d="M41.4447,34.3228 C41.0447,34.3228 40.7197,33.9988 40.7197,33.5978 L40.7197,28.3528 C40.7197,27.9528 41.0447,27.6288 41.4447,27.6288 C41.8447,27.6288 42.1687,27.9528 42.1687,28.3528 L42.1687,33.5978 C42.1687,33.9988 41.8447,34.3228 41.4447,34.3228" id="Fill-12" fill="#000202"></path>
            <g id="Group-16" transform="translate(0.000000, 32.534900)">
                <mask id="mask-4" fill="white">
                    <use xlink:href="#path-3"></use>
                </mask>
                <g id="Clip-15"></g>
                <path d="M6.6434,2.162 C3.7794,2.162 1.4494,4.492 1.4494,7.356 C1.4494,10.221 3.7794,12.551 6.6434,12.551 C9.5074,12.551 11.8384,10.221 11.8384,7.356 C11.8384,4.492 9.5074,2.162 6.6434,2.162 M6.6434,14 C2.9804,14 -0.0006,11.019 -0.0006,7.356 C-0.0006,3.693 2.9804,0.713 6.6434,0.713 C10.3074,0.713 13.2874,3.693 13.2874,7.356 C13.2874,11.019 10.3074,14 6.6434,14" id="Fill-14" fill="#000202" mask="url(#mask-4)"></path>
            </g>
            <path d="M24.0438,34.6969 C21.1798,34.6969 18.8498,37.0269 18.8498,39.8909 C18.8498,42.7559 21.1798,45.0859 24.0438,45.0859 C26.9088,45.0859 29.2388,42.7559 29.2388,39.8909 C29.2388,37.0269 26.9088,34.6969 24.0438,34.6969 M24.0438,46.5349 C20.3808,46.5349 17.3998,43.5539 17.3998,39.8909 C17.3998,36.2279 20.3808,33.2479 24.0438,33.2479 C27.7078,33.2479 30.6878,36.2279 30.6878,39.8909 C30.6878,43.5539 27.7078,46.5349 24.0438,46.5349" id="Fill-17" fill="#000202"></path>
            <g id="Group-21" transform="translate(34.000000, 32.534900)">
                <mask id="mask-6" fill="white">
                    <use xlink:href="#path-5"></use>
                </mask>
                <g id="Clip-20"></g>
                <path d="M7.4447,2.162 C4.5797,2.162 2.2497,4.492 2.2497,7.356 C2.2497,10.221 4.5797,12.551 7.4447,12.551 C10.3087,12.551 12.6387,10.221 12.6387,7.356 C12.6387,4.492 10.3087,2.162 7.4447,2.162 M7.4447,14 C3.7807,14 0.8007,11.019 0.8007,7.356 C0.8007,3.693 3.7807,0.713 7.4447,0.713 C11.1077,0.713 14.0887,3.693 14.0887,7.356 C14.0887,11.019 11.1077,14 7.4447,14" id="Fill-19" fill="#000202" mask="url(#mask-6)"></path>
            </g>
        </g>
    </g>
</svg>