<?xml version="1.0" encoding="UTF-8"?>
<svg width="51px" height="47px" viewBox="0 0 51 47" version="1.1" xmlns="http://www.w3.org/2000/svg" xmlns:xlink="http://www.w3.org/1999/xlink">
    <!-- Generator: Sketch 49.3 (51167) - http://www.bohemiancoding.com/sketch -->
    <title>Page 1</title>
    <desc>Created with Sketch.</desc>
    <defs>
        <polygon id="path-1" points="0.0006 0.004 50.6876 0.004 50.6876 46.9994 0.0006 46.9994"></polygon>
        <polygon id="path-3" points="0 0.4975 50.6877 0.4975 50.6877 2.0965 0 2.0965"></polygon>
    </defs>
    <g id="Page-1" stroke="none" stroke-width="1" fill="none" fill-rule="evenodd">
        <g transform="translate(0.000000, -1.000000)">
            <g id="Group-3" transform="translate(0.000000, 0.995900)">
                <mask id="mask-2" fill="white">
                    <use xlink:href="#path-1"></use>
                </mask>
                <g id="Clip-2"></g>
                <path d="M3.1046,1.6034 C2.2746,1.6034 1.5986,2.2784 1.5986,3.1094 L1.5986,43.8954 C1.5986,44.7254 2.2746,45.4014 3.1046,45.4014 L47.5836,45.4014 C48.4136,45.4014 49.0896,44.7254 49.0896,43.8954 L49.0896,3.1094 C49.0896,2.2784 48.4136,1.6034 47.5836,1.6034 L3.1046,1.6034 Z M47.5836,46.9994 L3.1046,46.9994 C1.3926,46.9994 0.0006,45.6074 0.0006,43.8954 L0.0006,3.1094 C0.0006,1.3974 1.3926,0.0034 3.1046,0.0034 L47.5836,0.0034 C49.2956,0.0034 50.6876,1.3974 50.6876,3.1094 L50.6876,43.8954 C50.6876,45.6074 49.2956,46.9994 47.5836,46.9994 Z" id="Fill-1" fill="#E54F30" mask="url(#mask-2)"></path>
            </g>
            <g id="Group-6" transform="translate(0.000000, 7.995900)">
                <mask id="mask-4" fill="white">
                    <use xlink:href="#path-3"></use>
                </mask>
                <g id="Clip-5"></g>
                <path d="M49.8887,2.0965 L0.7997,2.0965 C0.3577,2.0965 -0.0003,1.7395 -0.0003,1.2965 C-0.0003,0.8555 0.3577,0.4975 0.7997,0.4975 L49.8887,0.4975 C50.3297,0.4975 50.6877,0.8555 50.6877,1.2965 C50.6877,1.7395 50.3297,2.0965 49.8887,2.0965" id="Fill-4" fill="#E54F30" mask="url(#mask-4)"></path>
            </g>
            <path d="M5.9913,6.8688 C5.2893,6.8688 4.7183,6.2978 4.7183,5.5958 C4.7183,4.8938 5.2893,4.3228 5.9913,4.3228 C6.6933,4.3228 7.2643,4.8938 7.2643,5.5958 C7.2643,6.2978 6.6933,6.8688 5.9913,6.8688" id="Fill-7" fill="#E54F30"></path>
            <path d="M10.0645,6.8688 C9.3625,6.8688 8.7915,6.2978 8.7915,5.5958 C8.7915,4.8938 9.3625,4.3228 10.0645,4.3228 C10.7665,4.3228 11.3375,4.8938 11.3375,5.5958 C11.3375,6.2978 10.7665,6.8688 10.0645,6.8688" id="Fill-9" fill="#E54F30"></path>
            <path d="M14.1378,6.8688 C13.4358,6.8688 12.8648,6.2978 12.8648,5.5958 C12.8648,4.8938 13.4358,4.3228 14.1378,4.3228 C14.8398,4.3228 15.4108,4.8938 15.4108,5.5958 C15.4108,6.2978 14.8398,6.8688 14.1378,6.8688" id="Fill-11" fill="#E54F30"></path>
            <path d="M17.6983,33.9586 C17.5253,33.9586 17.3513,33.9026 17.2043,33.7876 L11.2353,29.0916 C11.0423,28.9396 10.9293,28.7086 10.9293,28.4636 C10.9293,28.2186 11.0423,27.9866 11.2353,27.8346 L17.2043,23.1396 C17.5523,22.8656 18.0543,22.9266 18.3273,23.2726 C18.6003,23.6196 18.5403,24.1226 18.1933,24.3956 L13.0223,28.4636 L18.1933,32.5306 C18.5403,32.8046 18.6003,33.3066 18.3273,33.6536 C18.1693,33.8546 17.9353,33.9586 17.6983,33.9586" id="Fill-13" fill="#E54F30"></path>
            <path d="M32.9898,33.9586 C32.7528,33.9586 32.5188,33.8546 32.3608,33.6536 C32.0878,33.3066 32.1478,32.8046 32.4948,32.5306 L37.6658,28.4636 L32.4948,24.3956 C32.1478,24.1226 32.0878,23.6196 32.3608,23.2726 C32.6338,22.9266 33.1358,22.8656 33.4838,23.1396 L39.4528,27.8346 C39.6458,27.9866 39.7588,28.2186 39.7588,28.4636 C39.7588,28.7086 39.6458,28.9396 39.4528,29.0916 L33.4838,33.7876 C33.3368,33.9026 33.1628,33.9586 32.9898,33.9586" id="Fill-15" fill="#E54F30"></path>
            <path d="M23.5357,37.401 C23.4777,37.401 23.4197,37.394 23.3617,37.381 C22.9307,37.286 22.6587,36.859 22.7547,36.427 L26.3727,20.152 C26.4687,19.721 26.8967,19.45 27.3267,19.546 C27.7577,19.641 28.0297,20.068 27.9337,20.499 L24.3157,36.775 C24.2327,37.147 23.9027,37.401 23.5357,37.401" id="Fill-17" fill="#E54F30"></path>
        </g>
    </g>
</svg>