<?xml version="1.0" encoding="UTF-8"?>
<svg width="56px" height="57px" viewBox="0 0 56 57" version="1.1" xmlns="http://www.w3.org/2000/svg" xmlns:xlink="http://www.w3.org/1999/xlink">
    <!-- Generator: Sketch 49.3 (51167) - http://www.bohemiancoding.com/sketch -->
    <title>Page 1</title>
    <desc>Created with Sketch.</desc>
    <defs>
        <polygon id="path-1" points="0.0005 0.784 52.8525 0.784 52.8525 53.6366 0.0005 53.6366"></polygon>
        <polygon id="path-3" points="0.0376 0.1669 20.943 0.1669 20.943 20.9999 0.0376 20.9999"></polygon>
    </defs>
    <g id="Page-1" stroke="none" stroke-width="1" fill="none" fill-rule="evenodd">
        <g transform="translate(0.000000, -1.000000)">
            <g id="Group-3" transform="translate(0.000000, 0.215700)">
                <mask id="mask-2" fill="white">
                    <use xlink:href="#path-1"></use>
                </mask>
                <g id="Clip-2"></g>
                <path d="M24.3005,53.6366 C22.9925,53.6366 21.8045,52.8146 21.3425,51.5896 L20.6075,49.6366 C20.5915,49.5936 20.5785,49.5496 20.5695,49.5046 C20.5015,49.1816 20.2615,48.9206 19.9445,48.8256 C18.4885,48.3896 17.0715,47.8036 15.7315,47.0816 C15.4375,46.9236 15.0835,46.9386 14.8065,47.1186 C14.7685,47.1436 14.7285,47.1656 14.6865,47.1846 L12.7855,48.0456 C11.5955,48.5866 10.1745,48.3276 9.2485,47.4026 L6.1855,44.3416 C5.2915,43.4476 5.0415,42.0726 5.5625,40.9206 L6.4515,38.9556 C6.4705,38.9136 6.4925,38.8736 6.5185,38.8346 C6.6995,38.5596 6.7135,38.2056 6.5545,37.9116 C5.8315,36.5736 5.2435,35.1546 4.8055,33.6956 C4.7105,33.3766 4.4505,33.1386 4.1275,33.0716 C4.0825,33.0616 4.0375,33.0486 3.9945,33.0326 L1.9785,32.2736 C0.7965,31.8266 0.0015,30.6786 0.0015,29.4146 L0.0005,25.0816 C0.0005,23.7766 0.8215,22.5876 2.0445,22.1266 L3.9885,21.3936 C4.0315,21.3766 4.0755,21.3646 4.1205,21.3546 C4.4445,21.2866 4.7035,21.0476 4.7995,20.7296 C5.2355,19.2676 5.8235,17.8456 6.5485,16.5036 C6.7065,16.2106 6.6915,15.8576 6.5105,15.5816 C6.4855,15.5426 6.4635,15.5016 6.4445,15.4596 L5.5895,13.5686 C5.0495,12.3756 5.3085,10.9546 6.2335,10.0326 L9.2445,7.0196 C10.1695,6.0946 11.5905,5.8356 12.7805,6.3746 L14.6695,7.2286 C14.7115,7.2466 14.7525,7.2696 14.7915,7.2946 C15.0665,7.4756 15.4205,7.4896 15.7145,7.3306 C17.0565,6.6066 18.4795,6.0166 19.9425,5.5776 C20.2615,5.4836 20.5005,5.2236 20.5675,4.9006 C20.5775,4.8556 20.5905,4.8106 20.6065,4.7666 L21.3385,2.8286 C21.7975,1.6066 22.9845,0.7836 24.2925,0.7836 L28.5545,0.7836 C29.8615,0.7836 31.0485,1.6056 31.5095,2.8266 L32.2415,4.7676 C32.2585,4.8096 32.2705,4.8546 32.2805,4.8996 C32.3475,5.2216 32.5875,5.4816 32.9055,5.5766 C34.3685,6.0146 35.7915,6.6046 37.1345,7.3296 C37.4265,7.4876 37.7815,7.4736 38.0575,7.2926 C38.0955,7.2676 38.1365,7.2446 38.1785,7.2256 L40.1345,6.3416 C41.2835,5.8216 42.6575,6.0716 43.5525,6.9636 L46.6165,10.0276 C47.5415,10.9516 47.8005,12.3736 47.2615,13.5646 L46.4055,15.4566 C46.3865,15.4986 46.3635,15.5386 46.3385,15.5776 C46.1575,15.8536 46.1445,16.2066 46.3025,16.4986 C47.0265,17.8426 47.6145,19.2636 48.0515,20.7246 C48.1475,21.0426 48.4065,21.2826 48.7295,21.3496 C48.7755,21.3596 48.8195,21.3716 48.8625,21.3886 L50.8075,22.1206 C52.0305,22.5826 52.8525,23.7706 52.8525,25.0766 L52.8525,29.4096 C52.8525,30.6726 52.0585,31.8216 50.8765,32.2676 L48.8595,33.0276 C48.8155,33.0436 48.7715,33.0566 48.7255,33.0666 C48.4035,33.1326 48.1435,33.3726 48.0475,33.6916 C47.8745,34.2736 47.6645,34.8776 47.4245,35.4876 C46.9085,37.1766 46.1625,38.7826 45.2075,40.2636 C44.9405,40.6766 44.3895,40.7956 43.9755,40.5296 C43.5625,40.2616 43.4435,39.7106 43.7105,39.2976 C44.5825,37.9466 45.2625,36.4786 45.7305,34.9346 C45.7375,34.9106 45.7455,34.8876 45.7545,34.8656 C45.9815,34.2926 46.1785,33.7256 46.3415,33.1806 C46.6185,32.2576 47.3615,31.5586 48.2895,31.3386 L50.2475,30.6006 C50.7395,30.4146 51.0705,29.9366 51.0705,29.4096 L51.0705,25.0766 C51.0705,24.5076 50.7125,23.9896 50.1785,23.7876 L48.2935,23.0766 C47.3625,22.8566 46.6205,22.1576 46.3445,21.2346 C45.9425,19.8896 45.4005,18.5806 44.7345,17.3456 C44.2775,16.4986 44.3065,15.4796 44.8085,14.6646 L45.6385,12.8296 C45.8735,12.3106 45.7605,11.6906 45.3575,11.2866 L42.2935,8.2246 C41.9205,7.8526 41.3475,7.7476 40.8685,7.9646 L38.9695,8.8236 C38.1575,9.3236 37.1375,9.3546 36.2895,8.8986 C35.0505,8.2296 33.7415,7.6866 32.3955,7.2826 C31.4745,7.0086 30.7755,6.2666 30.5525,5.3376 L29.8435,3.4566 C29.6425,2.9236 29.1245,2.5656 28.5545,2.5656 L24.2925,2.5656 C23.7225,2.5656 23.2055,2.9236 23.0055,3.4556 L22.2955,5.3366 C22.0745,6.2676 21.3745,7.0096 20.4525,7.2846 C19.1065,7.6886 17.7965,8.2316 16.5605,8.8986 C15.7125,9.3566 14.6925,9.3266 13.8785,8.8256 L12.0465,7.9976 C11.5265,7.7626 10.9075,7.8756 10.5045,8.2796 L7.4925,11.2916 C7.0895,11.6946 6.9765,12.3146 7.2125,12.8336 L8.0415,14.6696 C8.5425,15.4836 8.5725,16.5026 8.1155,17.3496 C7.4485,18.5846 6.9075,19.8936 6.5065,21.2396 C6.2305,22.1596 5.4885,22.8606 4.5595,23.0816 L2.6735,23.7926 C2.1405,23.9936 1.7815,24.5126 1.7815,25.0816 L1.7825,29.4146 C1.7825,29.9416 2.1135,30.4196 2.6075,30.6066 L4.5645,31.3436 C5.4945,31.5646 6.2365,32.2636 6.5115,33.1846 C6.9145,34.5266 7.4565,35.8326 8.1225,37.0656 C8.5795,37.9136 8.5505,38.9346 8.0495,39.7476 L7.1855,41.6566 C6.9675,42.1356 7.0725,42.7086 7.4455,43.0806 L10.5085,46.1426 C10.9115,46.5466 11.5305,46.6586 12.0495,46.4236 L13.8955,45.5866 C14.7095,45.0866 15.7305,45.0576 16.5765,45.5146 C17.8095,46.1776 19.1145,46.7176 20.4545,47.1186 C21.3755,47.3946 22.0745,48.1366 22.2965,49.0666 L23.0105,50.9616 C23.2115,51.4956 23.7305,51.8556 24.3005,51.8556 L28.5575,51.8536 C29.1285,51.8536 29.6465,51.4946 29.8465,50.9616 L30.5605,49.0656 C30.7825,48.1356 31.4825,47.3936 32.4025,47.1176 C32.9385,46.9576 33.4725,46.7726 34.0355,46.5516 C34.0575,46.5426 34.0815,46.5346 34.1045,46.5286 C35.5415,46.0966 36.9185,45.4796 38.1955,44.6946 C38.6145,44.4366 39.1625,44.5676 39.4205,44.9866 C39.6775,45.4056 39.5475,45.9536 39.1285,46.2116 C37.7305,47.0716 36.2245,47.7476 34.6525,48.2236 C34.0545,48.4566 33.4855,48.6546 32.9125,48.8246 C32.5955,48.9196 32.3555,49.1806 32.2875,49.5036 C32.2785,49.5486 32.2655,49.5926 32.2495,49.6356 L31.5145,51.5886 C31.0545,52.8126 29.8665,53.6346 28.5585,53.6346 L24.3005,53.6366 Z" id="Fill-1" fill="#FFFFFF" mask="url(#mask-2)"></path>
            </g>
            <g id="Group-6" transform="translate(35.000000, 36.215700)">
                <mask id="mask-4" fill="white">
                    <use xlink:href="#path-3"></use>
                </mask>
                <g id="Clip-5"></g>
                <path d="M15.6086,20.9999 C14.5386,20.9999 13.5316,20.5829 12.7756,19.8259 L0.2986,7.3509 C-0.0494,7.0019 -0.0494,6.4379 0.2986,6.0909 C0.6466,5.7429 1.2106,5.7429 1.5586,6.0909 L14.0346,18.5659 C14.4556,18.9869 15.0136,19.2189 15.6086,19.2189 C16.2026,19.2189 16.7616,18.9869 17.1816,18.5669 L18.5106,17.2379 C19.3776,16.3709 19.3776,14.9589 18.5096,14.0919 L6.1056,1.6879 C5.7576,1.3399 5.7576,0.7749 6.1056,0.4279 C6.4536,0.0799 7.0176,0.0799 7.3656,0.4279 L19.7696,12.8319 C20.5266,13.5889 20.9436,14.5949 20.9436,15.6649 C20.9436,16.7349 20.5266,17.7409 19.7696,18.4979 L18.4416,19.8259 C17.6846,20.5829 16.6786,20.9999 15.6086,20.9999" id="Fill-4" fill="#FFFFFF" mask="url(#mask-4)"></path>
            </g>
            <path d="M26.4265,10.8455 C21.9975,10.8455 17.8345,12.5705 14.7025,15.7015 C8.2375,22.1655 8.2375,32.6855 14.7025,39.1495 C17.8345,42.2815 21.9975,44.0055 26.4265,44.0055 C30.8555,44.0055 35.0185,42.2815 38.1505,39.1495 C44.6155,32.6855 44.6155,22.1655 38.1505,15.7015 C35.0185,12.5705 30.8555,10.8455 26.4265,10.8455 M26.4265,45.7865 C21.5215,45.7865 16.9105,43.8775 13.4425,40.4085 C6.2835,33.2495 6.2835,21.6015 13.4425,14.4415 C16.9105,10.9735 21.5215,9.0635 26.4265,9.0635 C31.3315,9.0635 35.9425,10.9735 39.4105,14.4415 C46.5695,21.6015 46.5695,33.2495 39.4105,40.4085 C35.9425,43.8775 31.3315,45.7865 26.4265,45.7865" id="Fill-7" fill="#FFFFFF"></path>
            <path d="M26.4265,16.5291 C23.5155,16.5291 20.7795,17.6631 18.7215,19.7201 C14.4735,23.9691 14.4735,30.8821 18.7215,35.1311 C20.7795,37.1881 23.5155,38.3221 26.4265,38.3221 C29.3375,38.3221 32.0735,37.1881 34.1315,35.1311 C38.3795,30.8821 38.3795,23.9691 34.1315,19.7201 C32.0735,17.6631 29.3375,16.5291 26.4265,16.5291 M26.4265,40.1031 C23.0405,40.1031 19.8565,38.7851 17.4615,36.3901 C12.5185,31.4471 12.5185,23.4041 17.4615,18.4611 C19.8565,16.0661 23.0405,14.7481 26.4265,14.7481 C29.8125,14.7481 32.9965,16.0661 35.3905,18.4611 C40.3345,23.4041 40.3345,31.4471 35.3905,36.3901 C32.9965,38.7851 29.8125,40.1031 26.4265,40.1031" id="Fill-9" fill="#FFFFFF"></path>
        </g>
    </g>
</svg>