<?xml version="1.0" encoding="UTF-8"?>
<svg width="71px" height="63px" viewBox="0 0 71 63" version="1.1" xmlns="http://www.w3.org/2000/svg" xmlns:xlink="http://www.w3.org/1999/xlink">
    <!-- Generator: Sketch 49.3 (51167) - http://www.bohemiancoding.com/sketch -->
    <title>Page 1</title>
    <desc>Created with Sketch.</desc>
    <defs></defs>
    <g id="Page-1" stroke="none" stroke-width="1" fill="none" fill-rule="evenodd">
        <path d="M10.523,56.0743 L31.779,56.0743 L31.779,6.7783 L10.523,6.7783 L10.523,56.0743 Z M38.56,20.6373 L59.816,20.6373 L59.816,6.7783 L38.56,6.7783 L38.56,20.6373 Z M37.087,21.3723 L37.087,6.0433 C37.087,5.6353 37.417,5.3073 37.822,5.3073 L60.554,5.3073 C60.959,5.3073 61.289,5.6353 61.289,6.0433 L61.289,21.3723 C61.289,21.7773 60.959,22.1073 60.554,22.1073 L37.822,22.1073 C37.417,22.1073 37.087,21.7773 37.087,21.3723 Z M38.56,56.0743 L59.816,56.0743 L59.816,27.4173 L38.56,27.4173 L38.56,56.0743 Z M37.087,56.8123 L37.087,26.6803 C37.087,26.2743 37.417,25.9453 37.822,25.9453 L60.554,25.9453 C60.959,25.9453 61.289,26.2743 61.289,26.6803 L61.289,56.8123 C61.289,57.2183 60.959,57.5473 60.554,57.5473 L37.822,57.5473 C37.417,57.5473 37.087,57.2183 37.087,56.8123 Z M32.517,1.4723 L8.158,1.4723 C7.344,1.4723 6.61,1.8003 6.077,2.3333 L6.074,2.3363 C5.542,2.8683 5.215,3.6023 5.215,4.4173 L5.215,58.4383 C5.215,59.2493 5.545,59.9873 6.077,60.5193 C6.61,61.0523 7.348,61.3823 8.158,61.3823 L32.517,61.3823 L37.822,61.3823 L62.177,61.3823 C62.991,61.3823 63.728,61.0543 64.261,60.5223 L64.264,60.5193 C64.794,59.9873 65.124,59.2493 65.124,58.4383 L65.124,4.4173 C65.124,3.6053 64.794,2.8683 64.261,2.3363 C63.728,1.8033 62.991,1.4723 62.177,1.4723 L37.822,1.4723 L32.517,1.4723 Z M0.73499791,62.8553 L8.1579768,62.8553 L32.5169075,62.8553 L37.8218925,62.8553 L62.1768232,62.8553 L69.6008021,62.8553 C70.0088009,62.8553 70.3388,62.5242984 70.3388,62.1202965 C70.3388,61.7152946 70.0088009,61.382293 69.6008021,61.382293 L65.4648139,61.382293 C66.1688119,60.5992892 66.5968106,59.5662843 66.5968106,58.4382789 L66.5968106,4.41702108 C66.5968106,3.20001527 66.101812,2.09501 65.2998143,1.29300617 C64.5008166,0.495002363 63.3948197,0 62.1768232,0 L37.8218925,0 L32.5169075,0 L8.1579768,0 C6.94798024,0 5.84598338,0.492002348 5.04698565,1.28700614 L5.03798568,1.29300617 L5.03798568,1.29700619 L5.03798568,1.3000062 C4.23698795,2.09701001 3.74198936,3.20301529 3.74198936,4.41702108 L3.74198936,58.4382789 C3.74198936,59.5662843 4.16798815,60.5992892 4.86998615,61.382293 L0.73499791,61.382293 C0.329999062,61.382293 0,61.7152946 0,62.1202965 C0,62.5242984 0.329999062,62.8553 0.73499791,62.8553 Z M33.249,6.0433 L33.249,56.8123 C33.249,57.2183 32.923,57.5473 32.517,57.5473 L9.785,57.5473 C9.38,57.5473 9.047,57.2183 9.047,56.8123 L9.047,6.0433 C9.047,5.6353 9.38,5.3073 9.785,5.3073 L32.517,5.3073 C32.923,5.3073 33.249,5.6353 33.249,6.0433 Z" fill="#F9F9F9"></path>
    </g>
</svg>