<?xml version="1.0" encoding="UTF-8"?>
<svg width="87px" height="58px" viewBox="0 0 87 58" version="1.1" xmlns="http://www.w3.org/2000/svg" xmlns:xlink="http://www.w3.org/1999/xlink">
    <!-- Generator: Sketch 49.3 (51167) - http://www.bohemiancoding.com/sketch -->
    <title>Page 1</title>
    <desc>Created with Sketch.</desc>
    <defs>
        <polygon id="path-1" points="0 0.5303 86.0919345 0.5303 86.0919345 9 0 9"></polygon>
    </defs>
    <g id="Page-1" stroke="none" stroke-width="1" fill="none" fill-rule="evenodd">
        <g>
            <path d="M75.1904,11.7411 C74.6004,11.7411 74.1214,11.2621 74.1214,10.6731 L74.1214,4.7871 C74.1214,3.3261 72.9334,2.1371 71.4724,2.1371 L14.6194,2.1371 C13.1584,2.1371 11.9694,3.3261 11.9694,4.7871 L11.9694,10.6731 C11.9694,11.2621 11.4914,11.7411 10.9004,11.7411 C10.3104,11.7411 9.8324,11.2621 9.8324,10.6731 L9.8324,4.7871 C9.8324,2.1471 11.9794,0.0001 14.6194,0.0001 L71.4724,0.0001 C74.1124,0.0001 76.2594,2.1471 76.2594,4.7871 L76.2594,10.6731 C76.2594,11.2621 75.7804,11.7411 75.1904,11.7411" id="Fill-1" fill="#E54F30"></path>
            <path d="M75.1952,11.7489 C74.6052,11.7489 74.1262,11.2699 74.1262,10.6809 L74.1262,7.6859 C74.1202,7.6219 74.1202,7.5589 74.1252,7.4929 C74.1262,7.4859 74.1262,7.4779 74.1262,7.4699 C74.1262,6.8789 74.6052,6.3999 75.1952,6.3999 C75.7852,6.3999 76.2642,6.8789 76.2642,7.4699 L76.2642,10.6809 C76.2642,11.2699 75.7852,11.7489 75.1952,11.7489" id="Fill-3" fill="#E54F30"></path>
            <path d="M10.8964,11.7489 C10.3064,11.7489 9.8274,11.2699 9.8274,10.6809 L9.8274,7.4699 C9.8274,6.8789 10.3064,6.3999 10.8964,6.3999 C11.4864,6.3999 11.9654,6.8789 11.9654,7.4699 C11.9654,7.4779 11.9654,7.4859 11.9654,7.4929 C11.9714,7.5569 11.9704,7.6189 11.9654,7.6799 L11.9654,10.6809 C11.9654,11.2699 11.4864,11.7489 10.8964,11.7489" id="Fill-5" fill="#E54F30"></path>
            <path d="M75.1952,51.5771 L10.8962,51.5771 C10.3062,51.5771 9.8272,51.0981 9.8272,50.5081 L9.8272,26.7051 C9.8272,26.1141 10.3062,25.6361 10.8962,25.6361 C11.4872,25.6361 11.9652,26.1141 11.9652,26.7051 L11.9652,49.4391 L74.1262,49.4391 L74.1262,26.7051 C74.1262,26.1141 74.6052,25.6361 75.1952,25.6361 C75.7852,25.6361 76.2642,26.1141 76.2642,26.7051 L76.2642,50.5081 C76.2642,51.0981 75.7852,51.5771 75.1952,51.5771" id="Fill-7" fill="#E54F30"></path>
            <g id="Group-11" transform="translate(0.000000, 48.909700)">
                <mask id="mask-2" fill="white">
                    <use xlink:href="#path-1"></use>
                </mask>
                <g id="Clip-10"></g>
                <path d="M2.998,2.6683 C4.94,5.3233 7.667,6.8623 10.552,6.8623 L75.54,6.8623 C78.425,6.8623 81.152,5.3233 83.094,2.6683 L2.998,2.6683 Z M75.54,9.0003 L10.552,9.0003 C6.335,9.0003 2.438,6.4223 0.126,2.1043 C-0.051,1.7723 -0.041,1.3723 0.152,1.0503 C0.345,0.7283 0.693,0.5303 1.069,0.5303 L85.023,0.5303 C85.399,0.5303 85.747,0.7283 85.94,1.0503 C86.133,1.3723 86.143,1.7723 85.965,2.1043 C83.654,6.4223 79.757,9.0003 75.54,9.0003 Z" id="Fill-9" fill="#E54F30" mask="url(#mask-2)"></path>
            </g>
            <path d="M22.6318,43.2401 C21.8048,43.2401 21.1318,42.5661 21.1318,41.7391 C21.1318,40.9111 21.8048,40.2381 22.6318,40.2381 C23.4598,40.2381 24.1328,40.9111 24.1328,41.7391 C24.1328,42.5661 23.4598,43.2401 22.6318,43.2401" id="Fill-12" fill="#E54F30"></path>
            <path d="M50.1596,43.5907 C49.5696,43.5907 49.0906,43.1117 49.0906,42.5217 L49.0906,33.3297 C49.0906,32.7397 49.5696,32.2617 50.1596,32.2617 C50.7496,32.2617 51.2286,32.7397 51.2286,33.3297 L51.2286,42.5217 C51.2286,43.1117 50.7496,43.5907 50.1596,43.5907" id="Fill-14" fill="#E54F30"></path>
            <path d="M56.7416,43.5907 C56.1516,43.5907 55.6726,43.1117 55.6726,42.5217 L55.6726,36.3907 C55.6726,35.7997 56.1516,35.3207 56.7416,35.3207 C57.3316,35.3207 57.8106,35.7997 57.8106,36.3907 L57.8106,42.5217 C57.8106,43.1117 57.3316,43.5907 56.7416,43.5907" id="Fill-16" fill="#E54F30"></path>
            <path d="M42.0507,34.6298 C40.5127,34.6298 39.2617,35.8808 39.2617,37.4178 L39.2617,38.6638 C39.2617,40.2018 40.5127,41.4528 42.0507,41.4528 C43.5887,41.4528 44.8397,40.2018 44.8397,38.6638 L44.8397,37.4178 C44.8397,35.8808 43.5887,34.6298 42.0507,34.6298 M42.0507,43.5908 C39.3347,43.5908 37.1247,41.3808 37.1247,38.6638 L37.1247,37.4178 C37.1247,34.7018 39.3347,32.4918 42.0507,32.4918 C44.7667,32.4918 46.9767,34.7018 46.9767,37.4178 L46.9767,38.6638 C46.9767,41.3808 44.7667,43.5908 42.0507,43.5908" id="Fill-18" fill="#E54F30"></path>
            <path d="M30.853,43.5907 C28.328,43.5907 26.273,41.5357 26.273,39.0107 L26.273,37.0717 C26.273,34.5467 28.328,32.4917 30.853,32.4917 C32.995,32.4917 34.877,34.0097 35.33,36.1017 C35.454,36.6787 35.087,37.2467 34.511,37.3717 C33.934,37.4977 33.365,37.1297 33.24,36.5527 C32.999,35.4387 31.996,34.6297 30.853,34.6297 C29.506,34.6297 28.411,35.7257 28.411,37.0717 L28.411,39.0107 C28.411,40.3577 29.506,41.4527 30.853,41.4527 C31.882,41.4527 32.806,40.8027 33.153,39.8347 C33.352,39.2797 33.964,38.9897 34.52,39.1907 C35.075,39.3897 35.364,40.0007 35.165,40.5567 C34.514,42.3707 32.782,43.5907 30.853,43.5907" id="Fill-20" fill="#E54F30"></path>
            <path d="M57.8105,36.3905 L55.6725,36.3905 C55.6725,35.2915 54.7535,34.3985 53.6235,34.3985 C52.4145,34.3985 51.2285,35.3855 51.2285,36.3905 L49.0905,36.3905 C49.0905,34.1905 51.2095,32.2615 53.6235,32.2615 C55.9325,32.2615 57.8105,34.1135 57.8105,36.3905" id="Fill-22" fill="#E54F30"></path>
            <path d="M63.3241,43.5907 C62.7341,43.5907 62.2551,43.1117 62.2551,42.5217 L62.2551,36.3907 C62.2551,35.7997 62.7341,35.3207 63.3241,35.3207 C63.9141,35.3207 64.3931,35.7997 64.3931,36.3907 L64.3931,42.5217 C64.3931,43.1117 63.9141,43.5907 63.3241,43.5907" id="Fill-24" fill="#E54F30"></path>
            <path d="M64.393,36.3905 L62.255,36.3905 C62.255,35.2915 61.336,34.3985 60.206,34.3985 C58.997,34.3985 57.81,35.3855 57.81,36.3905 L55.673,36.3905 C55.673,34.1905 57.791,32.2615 60.206,32.2615 C62.515,32.2615 64.393,34.1135 64.393,36.3905" id="Fill-26" fill="#E54F30"></path>
            <path d="M72.4618,28.3642 C70.1948,28.3642 68.0478,27.4352 66.4168,25.7492 C64.7898,24.0672 63.8908,21.8462 63.8838,19.4922 L63.8558,18.9182 C63.8268,18.6262 63.9158,18.3242 64.1288,18.0912 C64.5248,17.6532 65.2018,17.6222 65.6378,18.0182 C65.8478,18.2092 65.9748,18.4782 65.9878,18.7602 L65.9888,18.7602 L66.0208,19.4142 C66.0208,19.4312 66.0218,19.4482 66.0218,19.4662 C66.0218,23.1312 68.9708,26.2262 72.4618,26.2262 C72.5328,26.2262 72.6048,26.2252 72.6758,26.2222 C73.4018,26.1962 74.0998,26.0322 74.7488,25.7332 C75.8808,25.2182 76.8268,24.3342 77.4878,23.1732 C78.6588,21.1152 78.6078,18.5252 77.3558,16.4142 L74.1088,10.9442 C74.0768,10.8902 74.0498,10.8342 74.0278,10.7752 C73.4398,9.2072 71.8808,8.1532 70.1488,8.1532 L61.4898,8.1532 C60.8998,8.1532 60.4208,7.6752 60.4208,7.0852 C60.4208,6.4942 60.8998,6.0152 61.4898,6.0152 L70.1488,6.0152 C72.7328,6.0152 75.0688,7.5852 75.9938,9.9312 L79.1938,15.3232 C80.8378,18.0932 80.8958,21.5062 79.3458,24.2302 C78.4608,25.7852 77.1778,26.9772 75.6378,27.6772 C74.7338,28.0932 73.7618,28.3222 72.7528,28.3592 C72.6548,28.3622 72.5588,28.3642 72.4618,28.3642" id="Fill-28" fill="#E54F30"></path>
            <path d="M50.372,8.1542 L51.464,19.3452 C51.467,19.3802 51.469,19.4152 51.469,19.4492 C51.469,23.1862 54.288,26.2262 57.754,26.2262 C58.343,26.2262 58.926,26.1382 59.487,25.9662 C62.565,25.0152 64.428,21.5762 63.745,18.1222 L60.699,8.1542 L50.372,8.1542 Z M57.754,28.3642 C53.126,28.3642 49.359,24.3932 49.331,19.5032 L48.13,7.1892 C48.101,6.8882 48.2,6.5912 48.402,6.3672 C48.605,6.1432 48.893,6.0162 49.194,6.0162 L61.49,6.0162 C61.959,6.0162 62.374,6.3232 62.512,6.7732 L65.805,17.5472 C65.814,17.5792 65.823,17.6122 65.83,17.6452 C66.757,22.1802 64.248,26.7322 60.117,28.0082 C59.352,28.2442 58.557,28.3642 57.754,28.3642 Z" id="Fill-30" fill="#E54F30"></path>
            <path d="M36.7612,19.4999 C36.7862,23.2139 39.5962,26.2269 43.0462,26.2269 C46.4962,26.2269 49.3052,23.2139 49.3312,19.4999 L48.2242,8.1539 L37.8672,8.1539 L36.7612,19.4999 Z M43.0462,28.3639 C38.4022,28.3639 34.6232,24.3649 34.6232,19.4489 C34.6232,19.4149 34.6252,19.3799 34.6282,19.3459 L35.8342,6.9809 C35.8872,6.4349 36.3482,6.0169 36.8982,6.0169 L49.1942,6.0169 C49.7442,6.0169 50.2042,6.4349 50.2582,6.9809 L51.4642,19.3459 C51.4672,19.3799 51.4692,19.4149 51.4692,19.4489 C51.4692,24.3649 47.6902,28.3639 43.0462,28.3639 Z" id="Fill-32" fill="#E54F30"></path>
            <path d="M22.0575,19.6796 C22.1705,23.3516 24.9265,26.2266 28.3375,26.2266 C31.8035,26.2266 34.6235,23.1866 34.6235,19.4496 C34.6235,19.4136 34.6255,19.3796 34.6285,19.3456 L35.7205,8.1536 L25.4035,8.1536 L22.0795,19.5096 C22.0695,19.5686 22.0595,19.6386 22.0575,19.6706 L22.0575,19.6796 Z M28.3375,28.3646 C26.1205,28.3646 24.0285,27.4606 22.4465,25.8216 C20.8845,24.2016 19.9875,22.0386 19.9205,19.7286 C19.9205,19.7216 19.9205,19.7146 19.9205,19.7066 C19.9155,19.4876 19.9565,19.2326 19.9805,19.1026 C19.9885,19.0566 19.9975,19.0116 20.0105,18.9686 L23.5775,6.7836 C23.7105,6.3286 24.1285,6.0156 24.6025,6.0156 L36.8985,6.0156 C37.2005,6.0156 37.4875,6.1436 37.6905,6.3666 C37.8925,6.5896 37.9915,6.8886 37.9625,7.1886 L36.7615,19.5026 C36.7335,24.3936 32.9655,28.3646 28.3375,28.3646 Z" id="Fill-34" fill="#E54F30"></path>
            <path d="M13.6293,28.3642 C13.5333,28.3642 13.4363,28.3622 13.3393,28.3592 C12.3293,28.3222 11.3573,28.0932 10.4503,27.6762 C8.9113,26.9742 7.6293,25.7822 6.7463,24.2302 C5.1953,21.5062 5.2543,18.0932 6.8993,15.3232 L10.0973,9.9312 C11.0233,7.5852 13.3583,6.0152 15.9423,6.0152 L24.6033,6.0152 C25.1933,6.0152 25.6713,6.4942 25.6713,7.0852 C25.6713,7.6752 25.1933,8.1532 24.6033,8.1532 L15.9423,8.1532 C14.2113,8.1532 12.6513,9.2072 12.0633,10.7752 C12.0413,10.8342 12.0143,10.8902 11.9823,10.9442 L8.7373,16.4142 C7.4833,18.5252 7.4323,21.1142 8.6043,23.1732 C9.2633,24.3322 10.2103,25.2172 11.3393,25.7322 C11.9923,26.0322 12.6903,26.1962 13.4163,26.2222 C13.4863,26.2252 13.5583,26.2262 13.6293,26.2262 C16.9163,26.2262 19.6683,23.4642 19.9003,19.9342 C19.9143,19.5192 19.9253,19.4542 19.9353,19.3962 C20.0373,18.8152 20.5903,18.4262 21.1723,18.5272 C21.7353,18.6262 22.1183,19.1482 22.0493,19.7092 C22.0433,19.8012 22.0363,20.0192 22.0353,20.0222 C22.0353,20.0332 22.0353,20.0442 22.0343,20.0542 C21.7373,24.7142 18.0463,28.3642 13.6293,28.3642" id="Fill-36" fill="#E54F30"></path>
        </g>
    </g>
</svg>